<mxfile host="app.diagrams.net" modified="2024-06-07T07:53:20.393Z" agent="Mozilla/5.0 (Windows NT 10.0; Win64; x64) AppleWebKit/537.36 (KHTML, like Gecko) Chrome/125.0.0.0 Safari/537.36" etag="C_ANpZFU-F5iAeEJlQO7" version="24.5.1" type="github">
  <diagram name="Page-1" id="p4rH4bzcdrguBut9vZdg">
    <mxGraphModel dx="743" dy="497" grid="1" gridSize="10" guides="1" tooltips="1" connect="1" arrows="1" fold="1" page="1" pageScale="1" pageWidth="850" pageHeight="1100" math="0" shadow="1">
      <root>
        <mxCell id="0" />
        <mxCell id="1" parent="0" />
      </root>
    </mxGraphModel>
  </diagram>
</mxfile>
